<svg xmlns="http://www.w3.org/2000/svg" width="1257.62" height="407.69" viewBox="0 0 1257.615 407.692"><path d="M290.95 345.12h3.6v25.12h-3.6v-25.12zm30.68 0h3.42v25.12h-3.1l-16.8-19.35v19.3h-3.37v-25.1h2.9l16.95 19.5v-19.5zm16.57 14.6l-2.73-1.66c-1.72-1.05-2.94-2.08-3.66-3.1-.7-1-1-2.17-1-3.5 0-1.97.7-3.58 2.1-4.8 1.4-1.25 3.2-1.87 5.4-1.87 2.1 0 4 .5 5.8 1.7v4.1c-1.8-1.8-3.7-2.7-5.8-2.7-1.1 0-2.1.2-2.9.8-.7.5-1.1 1.2-1.1 2s.3 1.5.9 2.1c.6.6 1.5 1.3 2.7 2l2.8 1.6c3.1 1.8 4.6 4.1 4.6 7 0 2-.6 3.6-2 4.9-1.3 1.2-3.1 1.9-5.2 1.9-2.5 0-4.7-.8-6.7-2.3v-4.6c1.97 2.4 4.2 3.7 6.77 3.7 1.1 0 2.06-.3 2.8-1 .75-.6 1.1-1.4 1.1-2.4 0-1.58-1.1-3-3.3-4.4zm12 10.52v-25.16h7.96c2.4 0 4.3.65 5.74 1.95 1.43 1.3 2.14 3.03 2.14 5.2 0 1.47-.36 2.77-1.1 3.9-.73 1.12-1.73 1.94-3 2.45s-3.1.77-5.47.77h-2.66v10.9h-3.6zm7.33-21.96h-3.72v7.86h4c1.5 0 2.6-.34 3.4-1.03.8-.6 1.2-1.6 1.2-2.9 0-2.6-1.6-3.8-4.8-3.8zm13.22-3.16h3.6v25.12h-3.6v-25.12zm10.83 25.12v-25.12h6.3c2.54 0 4.56.63 6.05 1.9 1.5 1.24 2.24 2.95 2.24 5.1 0 1.46-.37 2.72-1.1 3.8-.73 1.06-1.78 1.86-3.15 2.38.8.53 1.6 1.25 2.36 2.16.77.9 1.84 2.5 3.23 4.77.9 1.42 1.6 2.5 2.2 3.2l1.4 1.8h-4.3l-1.1-1.64c0-.1-.1-.2-.2-.4l-.7-1-1.1-1.8-1.2-2c-.7-1.1-1.4-1.9-2-2.5-.6-.6-1.1-1.1-1.6-1.4-.5-.3-1.3-.4-2.5-.4h-.9V370h-3.6zm4.68-22.06h-1.08v7.93h1.37c1.82 0 3.07-.1 3.74-.4.6-.3 1.2-.8 1.5-1.4.4-.6.5-1.3.5-2.1s-.2-1.5-.7-2.1c-.4-.6-1-1.1-1.8-1.3s-2-.4-3.8-.4zm19-3.06h14.25v3.2h-10.6v7.66h10.3v3.22h-10.3v7.8h11v3.2h-14.6v-25.08zm44.14 33.6v-33.6h2.83v33.6h-2.83zm34.1-8.52v-25.08h8.5c3.4 0 6.12.5 8.1 1.54 2 1.02 3.58 2.53 4.76 4.52 1.17 2 1.76 4.16 1.76 6.5 0 1.7-.32 3.3-.97 4.83-.65 1.6-1.57 2.9-2.77 4.1-1.23 1.2-2.65 2.1-4.27 2.7-.9.4-1.8.7-2.6.8-.8.1-2.3.2-4.5.2h-7.9zm8.1-21.88h-4.5v18.7h4.6c1.8 0 3.2-.14 4.2-.38 1-.25 1.82-.56 2.5-.94.65-.37 1.26-.84 1.82-1.4 1.77-1.8 2.66-4.06 2.66-6.8 0-2.7-.92-4.9-2.74-6.6-.67-.64-1.44-1.16-2.3-1.57-.88-.4-1.7-.68-2.48-.8-.78-.15-2.03-.2-3.76-.2zm21.08-3.2h3.6v25.12h-3.6v-25.12zm16.94 14.6l-2.73-1.66c-1.8-1.05-3-2.08-3.7-3.1-.8-1-1.1-2.17-1.1-3.5 0-1.97.7-3.58 2-4.8 1.3-1.25 3.1-1.87 5.3-1.87 2.1 0 4 .5 5.7 1.7v4.1c-1.8-1.8-3.8-2.7-5.9-2.7-1.2 0-2.2.2-2.9.8-.8.5-1.2 1.2-1.2 2s.3 1.5.8 2.1 1.4 1.3 2.7 2l2.7 1.6c3 1.8 4.6 4.1 4.6 7 0 2-.7 3.6-2.1 4.9-1.4 1.2-3.1 1.9-5.3 1.9-2.48 0-4.7-.8-6.78-2.3v-4.6c1.92 2.4 4.2 3.7 6.72 3.7 1.1 0 2.04-.3 2.8-1 .74-.6 1.1-1.4 1.1-2.4 0-1.58-1.1-3-3.3-4.4zm33.85 4.7v3.95c-2.64 1.44-5.68 2.16-9.14 2.16-2.8 0-5.18-.56-7.14-1.7-2-1.1-3.5-2.67-4.7-4.64-1.2-2-1.7-4.2-1.7-6.5 0-3.7 1.3-6.8 3.9-9.3 2.6-2.5 5.8-3.8 9.6-3.8 2.6 0 5.5.7 8.8 2v3.8c-3-1.7-5.8-2.5-8.6-2.5-2.9 0-5.3.9-7.2 2.7-1.9 1.8-2.9 4.1-2.9 6.8 0 2.8.9 5 2.8 6.8s4.2 2.7 7.2 2.7 6-.9 8.9-2.8zm18.3-19.66c3.88 0 7.1 1.23 9.7 3.68 2.58 2.46 3.87 5.54 3.87 9.25 0 3.7-1.3 6.7-3.9 9.2-2.6 2.4-5.9 3.6-9.87 3.6-3.8 0-6.94-1.2-9.46-3.7-2.5-2.5-3.7-5.5-3.7-9.2 0-3.8 1.3-6.9 3.8-9.3 2.6-2.5 5.8-3.7 9.7-3.7zm.14 3.42c-2.8 0-5.2.9-7 2.7-1.8 1.8-2.7 4.1-2.7 6.88 0 2.7 1 4.97 2.8 6.77 1.9 1.8 4.2 2.7 7 2.7s5.2-.93 7-2.76c1.9-1.83 2.9-4.12 2.9-6.85 0-2.66-.9-4.9-2.8-6.72-1.9-1.82-4.2-2.72-6.9-2.72zm33.9-3.06h3.6l-10.6 25.23h-.8l-10.8-25.23h3.7l7.6 17.64 7.5-17.64zm7.9 0H638v3.2h-10.7v7.66h10.3v3.22h-10.3v7.8h11v3.2h-14.6v-25.08zm20.1 25.12v-25.12h6.3c2.6 0 4.6.63 6.1 1.9 1.5 1.24 2.3 2.95 2.3 5.1 0 1.46-.4 2.72-1.1 3.8-.7 1.06-1.8 1.86-3.1 2.38.8.53 1.6 1.25 2.4 2.16.8.9 1.9 2.5 3.3 4.77.9 1.42 1.6 2.5 2.1 3.2l1.4 1.8H659l-1.1-1.64c-.05-.1-.1-.2-.23-.4l-.7-1-1.1-1.8-1.22-2c-.73-1.1-1.4-1.9-2.02-2.5-.6-.6-1.14-1.1-1.64-1.4s-1.4-.4-2.5-.4h-1V370h-3.6zm4.7-22.06h-1.1v7.93h1.4c1.9 0 3.1-.1 3.8-.4.7-.3 1.2-.8 1.6-1.4.4-.6.6-1.3.6-2.1s-.2-1.5-.6-2.1c-.4-.6-1-1.1-1.7-1.3-.7-.2-2-.4-3.8-.4zm43.2 30.54v-33.6h2.9v33.6h-2.8zm27.3-33.64h21v3.2h-8.7v21.96h-3.6v-21.96H719v-3.2zm26 25.16v-25.12h6.3c2.6 0 4.6.63 6.1 1.9 1.5 1.24 2.3 2.95 2.3 5.1 0 1.46-.3 2.72-1.1 3.8-.7 1.06-1.8 1.86-3.1 2.38.8.53 1.6 1.25 2.4 2.16.7.9 1.8 2.5 3.2 4.77.9 1.42 1.6 2.5 2.1 3.2l1.3 1.8H760l-1.1-1.64c-.03-.1-.1-.2-.2-.4l-.7-1-1.13-1.8-1.2-2c-.76-1.1-1.45-1.9-2.06-2.5-.6-.6-1.2-1.1-1.7-1.4s-1.3-.4-2.5-.4h-.9V370h-3.6zm4.7-22.06h-1v7.93h1.4c1.9 0 3.1-.1 3.8-.4.7-.3 1.2-.8 1.6-1.4.4-.6.6-1.3.6-2.1s-.2-1.5-.6-2.1c-.4-.6-1-1.1-1.8-1.3s-2-.4-3.8-.4zm27.1-3.2h2.6l11.3 25.26H787l-3.36-7.44h-10.8l-3.13 7.44H766l10.8-25.27zm5.3 14.62l-4-9.1-3.7 9.1h7.8zm32.8-14.48h3.4v25.12h-3.1l-16.8-19.35v19.3H795v-25.1h2.9l17 19.5v-19.5zm16.6 14.6l-2.7-1.66c-1.7-1.05-2.9-2.08-3.7-3.1-.7-1-1-2.17-1-3.5 0-1.97.7-3.58 2.1-4.8 1.4-1.25 3.2-1.87 5.4-1.87 2.1 0 4 .5 5.8 1.7v4.1c-1.8-1.8-3.7-2.7-5.8-2.7-1.2 0-2.14.2-2.9.8-.74.5-1.1 1.2-1.1 2s.2 1.5.8 2.1 1.4 1.3 2.7 2l2.7 1.6c3.07 1.8 4.6 4.1 4.6 7 0 2-.7 3.6-2.02 4.9-1.35 1.2-3.1 1.9-5.26 1.9-2.5 0-4.77-.8-6.8-2.3v-4.6c1.93 2.4 4.2 3.7 6.73 3.7 1.1 0 2.06-.3 2.8-1 .78-.6 1.16-1.4 1.16-2.4 0-1.58-1.1-3-3.3-4.4zm12.3-14.6H857v3.2h-9.83v7.02h9.8v3.2h-9.8v11.7h-3.6v-25.12zm31.1-.36c3.9 0 7.2 1.23 9.7 3.68 2.6 2.46 3.9 5.54 3.9 9.25 0 3.7-1.3 6.7-3.9 9.2-2.6 2.4-5.9 3.6-9.8 3.6-3.8 0-6.9-1.2-9.4-3.7s-3.7-5.5-3.7-9.2c0-3.8 1.3-6.9 3.8-9.3 2.6-2.5 5.8-3.7 9.6-3.7zm.2 3.42c-2.8 0-5.2.9-7.1 2.7-1.8 1.8-2.7 4.1-2.7 6.88 0 2.7.9 4.97 2.8 6.77 1.9 1.8 4.2 2.7 7 2.7s5.1-.93 7-2.76c1.9-1.83 2.8-4.12 2.8-6.85 0-2.66-.9-4.9-2.8-6.72-1.9-1.82-4.2-2.72-6.9-2.72zm19.5 22.06v-25.12h6.3c2.6 0 4.6.63 6.1 1.9 1.5 1.24 2.3 2.95 2.3 5.1 0 1.46-.3 2.72-1.1 3.8-.7 1.06-1.8 1.86-3.1 2.38.8.53 1.6 1.25 2.4 2.16.8.9 1.9 2.5 3.3 4.77.9 1.42 1.6 2.5 2.1 3.2l1.37 1.8H910l-1.1-1.64c0-.1-.1-.2-.2-.4l-.7-1-1.1-1.8-1.2-2c-.7-1.1-1.4-1.9-2-2.5-.6-.6-1.17-1.1-1.67-1.4s-1.35-.4-2.5-.4h-1V370h-3.6zm4.7-22.06H898v7.93h1.37c1.82 0 3.07-.1 3.75-.4.67-.3 1.2-.8 1.58-1.4.4-.6.57-1.3.57-2.1s-.2-1.5-.62-2.1c-.4-.6-1-1.1-1.76-1.3s-2.1-.4-3.8-.4zm39-3.06h3.4v25.12H938V350.7l-7.7 9.7h-.66l-7.84-9.7v19.54H918v-25.12h3.4l8.36 10.32 8.3-10.32z" fill="#FFF"/><path opacity=".6" fill="#FFF" d="M712.93 331.42l-137.75.27.3-154.6"/><path opacity=".6" fill="#FFF" d="M543.6 335.62l-33.85-14.88 83.38-189.78"/><path opacity=".6" fill="#FFF" d="M455.67 150.05l124.86-40.7L646.6 96.8l-37.58 128.3M281.3 362.47H15.5l265.8-83.35m261.05 56.4H287.33V109.35m315.2 222.35l5.25-43.95 359.87 43.94"/><path opacity=".75" fill="#FFF" d="M733.48 106.4l18.18 15.05v43.14l-16.56 26.6"/><path d="M441.73 121.45V80c-18.45.72-36.4 1.8-53.74 3.17v38.28h53.7zm-66.67 0v-37.2c-13.93 1.26-27.42 2.72-40.4 4.35v32.85h40.4zm149.1 0V79c-7.65-.12-15.35-.18-23.13-.18-14.12 0-28.04.2-41.73.57v42h64.86zm83.64 0V82.7c-20.8-1.58-42.5-2.7-64.84-3.3v42.05h64.86zm-280.06 78.5V89.5c-14.13 1.88-27.62 3.98-40.4 6.3v104.14h40.4zm358.26-69V19.4c-2.04-.06-4.08-.1-6.13-.1-22.97 0-44.76 3.8-64.38 10.65v101.03H686zm14.75-110.6v236.43c13.7-1.4 26.85-4.18 39.2-8.14V28.5c-12.35-3.97-25.5-6.74-39.2-8.15zm-444.5 245.92h25.06v51.67h-25z" opacity=".6" fill="#FFF"/><path opacity=".75" fill="#FFF" d="M729.64 244h22.03v68.5h-22.03z"/><path opacity=".75" fill="#FFF" d="M742.57 278.24h27.67v46.37h-27.67zm118.23 7.5h15.4v38.86h-15.4zm21.55 0h15.38v38.86h-15.38z"/><path opacity=".75" fill="#FFF" d="M819.04 298.7h80.1v25.9h-80.1zm-31.3 3.33h24.3v20.9h-24.3z"/><path opacity=".6" fill="#FFF" d="M163.32 309.86v-77.58h83.24v51.3m65.98-111.86l-1.65-68.16 352.6-8.5m12.8-51.08h40V89.5h-40zm24.4 147.28h39.2v118.26h-39.2zM600.4 241.6H334.6l265.8-83.34m60.46 114.8l39.84 44.75v-44.7M636.66 131H686l-49.32 78.37"/><path d="M837.47 143.06l-20.6-53.42h4.4l16.87 44.22L855.8 89.1h2.53l17.72 44.76 16.8-44.22H897l-20.6 53.42h-.9L856.9 96.6l-18.52 46.46h-.9zm68.73-53.42h4.1v52.9h-4.1v-52.9zm23.48 52.9h-4.1v-52.9h3.48l40.1 45.53V89.64h4.1v53.42h-2.53L929.7 96.52v46zm59.02-52.9h19.6c8.36 0 15.08 2.42 20.16 7.27 5.1 4.9 7.63 11.3 7.63 19.2 0 8-2.6 14.4-7.9 19.2-5.2 4.9-12.2 7.3-20.7 7.3h-18.8V89.7zm4.1 49.22h14.72c7.3 0 13.13-2.07 17.5-6.2 4.36-4.15 6.55-9.67 6.55-16.56 0-6.9-2.12-12.44-6.34-16.58-4.23-4.14-9.88-6.2-16.95-6.2H992.8v45.54zm81.58-42.14c-2.47-1.42-4.63-2.44-6.47-3.1-1.8-.64-3.5-.95-5.1-.95-3.3 0-6 1-8.3 3.04-2.2 2.1-3.4 4.6-3.4 7.5 0 2.3.9 4.3 2.6 5.9 1.7 1.6 4.6 3.1 8.7 4.6 5.3 1.9 9 4 11.1 6.3 2.1 2.3 3.1 5.4 3.1 9.4s-1.4 7.3-4.3 10-6.4 4.1-10.6 4.1c-2.5 0-4.9-.3-7.1-1.1-2.1-.7-4.4-1.9-6.7-3.5V134c2.5 1.9 4.9 3.3 7 4.2 2.2.9 4.3 1.37 6.2 1.37 3.2 0 5.9-1.06 8-3.2 2.2-2.13 3.3-4.75 3.3-7.85 0-2.4-.9-4.44-2.7-6.2-1.8-1.7-4.6-3.3-8.5-4.7-5.5-1.95-9.2-4-11.2-6.1-1.9-2.05-2.9-5.02-2.9-8.9 0-3.8 1.6-7 4.7-9.6 3.1-2.6 6.9-3.9 11.4-3.9 1.9 0 3.8.22 5.6.73 1.8.5 3.8 1.34 6 2.53v4.42zm20.7 38.46c-5.5-5.32-8.27-11.68-8.27-19.08 0-7.42 2.8-13.8 8.3-19.12 5.5-5.33 12.1-8 19.7-8 7.7 0 14.3 2.67 19.8 8s8.3 11.7 8.3 19.12c0 7.4-2.7 13.76-8.2 19.08-5.5 5.33-12.1 8-19.7 8s-14.2-2.67-19.7-8zm36.35-2.53c4.58-4.57 6.88-10.1 6.88-16.55 0-6.48-2.3-12.02-6.8-16.58-4.6-4.57-10.1-6.85-16.6-6.85-6.5 0-12 2.28-16.6 6.85-4.6 4.56-6.8 10.1-6.8 16.58 0 6.46 2.3 11.98 6.9 16.55s10.1 6.85 16.6 6.85c6.5 0 12.1-2.28 16.6-6.85zm24.67-43h13.05c5.67 0 10.1 1.2 13.28 3.62 3.2 2.43 4.8 5.8 4.8 10.1s-1.6 7.66-4.82 10.08c-1.4 1.1-3.2 1.97-5.2 2.58.8.53 1.7 1.37 2.8 2.54 2.1 2.22 4.2 4.93 6.2 8.14l10.1 15.9h-4.7l-10-15.8c-2.4-3.9-4.5-6.4-6.1-7.6-1.6-1.2-3.8-1.8-6.7-1.8h-8.4v25.3h-4.1v-53zm4.1 24.3h9c4.3 0 7.6-.9 9.98-2.7 2.36-1.8 3.54-4.35 3.54-7.6 0-3.3-1.18-5.83-3.54-7.63-2.36-1.8-5.7-2.7-9.98-2.7h-9v20.62zM822.78 157.7h7.57v46h23.82v6.88h-31.4v-52.9zm38.02 0h29.98v6.73h-22.4v16.13h21.65v6.78h-21.66v16.43h23.13v6.74h-30.7v-52.8zm55.66-.3h5.32l23.72 53.18h-7.75l-7.05-15.67h-22.57l-6.6 15.7h-7.8l22.73-53.2zm11.12 30.77L919.05 169l-7.9 19.17h16.43zm23.8 22.33v-52.8h17.82c7.2 0 12.9 1.07 17.08 3.23 4.2 2.15 7.52 5.33 10 9.52 2.47 4.2 3.7 8.76 3.7 13.7 0 3.54-.68 6.92-2.04 10.15-1.36 3.24-3.3 6.07-5.83 8.52-2.5 2.53-5.5 4.43-8.9 5.72-2 .78-3.8 1.3-5.5 1.57-1.6.3-4.8.4-9.5.4h-16.8zm17.02-46.07h-9.46v39.34h9.7c3.78 0 6.72-.26 8.82-.78 2.1-.6 3.84-1.2 5.24-2 1.4-.8 2.68-1.8 3.84-3 3.74-3.8 5.6-8.6 5.6-14.4 0-5.7-1.9-10.3-5.75-13.9-1.5-1.4-3.1-2.5-4.9-3.3-1.9-.9-3.6-1.4-5.2-1.7-1.7-.3-4.3-.4-7.9-.4zm41.05-6.73h30v6.73H1017v16.13h21.66v6.78H1017v16.43h23.14v6.74h-30.7v-52.8zm39 52.88v-52.9h13.25c5.35 0 9.6 1.33 12.74 3.98 3.15 2.65 4.72 6.24 4.72 10.76 0 3.08-.77 5.74-2.3 8-1.55 2.24-3.76 3.9-6.64 5.02 1.7 1.1 3.35 2.63 4.96 4.55 1.62 1.9 3.9 5.2 6.8 10 1.86 3 3.34 5.2 4.44 6.8l2.8 3.7h-9l-2.3-3.5c-.08-.2-.24-.4-.46-.7l-1.48-2.1-2.34-3.9-2.54-4.2c-1.56-2.2-3-3.9-4.3-5.2-1.3-1.3-2.47-2.2-3.52-2.8-1.05-.6-2.8-.9-5.28-.9h-1.98v23h-7.57zm9.85-46.45h-2.28v16.7h2.88c3.84 0 6.47-.33 7.9-1 1.43-.65 2.53-1.64 3.33-2.96.8-1.33 1.2-2.84 1.2-4.53 0-1.66-.45-3.17-1.34-4.52-.9-1.36-2.2-2.3-3.8-2.86s-4.3-.83-8-.83zm49.86 24.3l-5.75-3.5c-3.6-2.2-6.1-4.38-7.7-6.5-1.5-2.14-2.3-4.6-2.3-7.38 0-4.16 1.5-7.54 4.4-10.15 2.9-2.6 6.7-3.9 11.3-3.9 4.5 0 8.5 1.25 12.2 3.73v8.6c-3.8-3.67-7.9-5.5-12.3-5.5-2.5 0-4.5.56-6.1 1.7-1.6 1.15-2.4 2.62-2.4 4.4 0 1.6.6 3.07 1.8 4.45 1.2 1.4 3.1 2.84 5.7 4.36l5.8 3.42c6.5 3.86 9.7 8.76 9.7 14.72 0 4.24-1.4 7.68-4.2 10.34-2.8 2.64-6.5 3.97-11 3.97-5.2 0-9.9-1.6-14.2-4.9v-9.6c4.1 5.2 8.8 7.7 14.2 7.7 2.4 0 4.4-.7 5.9-2 1.6-1.4 2.4-3 2.4-5 0-3.2-2.3-6.3-6.9-9.2zm59.7-30.73h7.58v52.88h-7.57v-23.02h-29.72v23.02h-7.57v-52.9h7.57v22.88h29.72V157.7zm19.32 0h7.57v52.88h-7.57v-52.9zm18.9 52.88V157.6h16.77c5.05 0 9.07 1.38 12.08 4.1 3 2.73 4.5 6.4 4.5 10.98 0 3.08-.76 5.8-2.3 8.18-1.55 2.38-3.65 4.1-6.33 5.17-2.67 1.07-6.5 1.6-11.5 1.6h-5.6v22.95h-7.62zm15.45-46.23h-7.84v16.55h8.2c3.1 0 5.4-.72 7.1-2.18 1.6-1.45 2.5-3.52 2.5-6.23 0-5.5-3.4-8.2-10.1-8.2z" fill="#FFF"/></svg>