<?xml version="1.0" encoding="utf-8"?>
<!-- Generator: Adobe Illustrator 16.0.0, SVG Export Plug-In . SVG Version: 6.00 Build 0)  -->
<!DOCTYPE svg PUBLIC "-//W3C//DTD SVG 1.1//EN" "http://www.w3.org/Graphics/SVG/1.1/DTD/svg11.dtd">
<svg version="1.1" id="Layer_1" xmlns="http://www.w3.org/2000/svg" xmlns:xlink="http://www.w3.org/1999/xlink" x="0px" y="0px"
	 width="216.696px" height="66.5px" viewBox="0 0 216.696 66.5" enable-background="new 0 0 216.696 66.5" xml:space="preserve">
<g>
	<path fill="#7C7D7D" d="M51.062,57.446h0.591v4.13h-0.591V57.446z"/>
	<path fill="#7C7D7D" d="M56.106,57.446h0.562v4.13h-0.509l-2.762-3.181v3.181h-0.556v-4.13h0.479l2.785,3.208V57.446z"/>
	<path fill="#7C7D7D" d="M58.829,59.846l-0.449-0.273c-0.282-0.172-0.482-0.342-0.602-0.508c-0.119-0.167-0.179-0.358-0.179-0.575
		c0-0.326,0.112-0.589,0.338-0.792c0.226-0.203,0.519-0.305,0.879-0.305c0.345,0,0.662,0.097,0.949,0.291v0.671
		c-0.298-0.286-0.618-0.43-0.961-0.43c-0.193,0-0.352,0.045-0.476,0.134c-0.124,0.089-0.186,0.204-0.186,0.343
		c0,0.124,0.045,0.24,0.137,0.348c0.091,0.107,0.238,0.221,0.441,0.34l0.451,0.267c0.504,0.301,0.756,0.685,0.756,1.149
		c0,0.331-0.111,0.601-0.333,0.807c-0.222,0.207-0.51,0.311-0.865,0.311c-0.408,0-0.779-0.125-1.115-0.376v-0.751
		c0.319,0.404,0.689,0.606,1.108,0.606c0.186,0,0.34-0.051,0.463-0.155c0.123-0.103,0.185-0.232,0.185-0.387
		C59.373,60.309,59.191,60.071,58.829,59.846z"/>
	<path fill="#7C7D7D" d="M60.801,61.576v-4.136h1.309c0.395,0,0.709,0.106,0.944,0.32c0.234,0.213,0.352,0.498,0.352,0.857
		c0,0.24-0.06,0.453-0.181,0.639c-0.12,0.185-0.284,0.32-0.493,0.403c-0.209,0.084-0.509,0.126-0.899,0.126h-0.438v1.792H60.801z
		 M62.007,57.966h-0.612v1.292h0.647c0.241,0,0.426-0.057,0.556-0.17c0.13-0.113,0.195-0.275,0.195-0.486
		C62.793,58.178,62.531,57.966,62.007,57.966z"/>
	<path fill="#7C7D7D" d="M64.18,57.446h0.591v4.13H64.18V57.446z"/>
	<path fill="#7C7D7D" d="M65.959,61.576v-4.13h1.035c0.418,0,0.749,0.103,0.995,0.31c0.245,0.207,0.368,0.487,0.368,0.84
		c0,0.24-0.06,0.449-0.18,0.624c-0.121,0.176-0.293,0.307-0.518,0.394c0.132,0.086,0.261,0.205,0.387,0.355
		c0.126,0.149,0.303,0.411,0.532,0.783c0.144,0.234,0.259,0.411,0.346,0.529l0.219,0.296H68.44l-0.18-0.272
		c-0.006-0.009-0.018-0.026-0.036-0.05l-0.115-0.163l-0.183-0.302l-0.198-0.323c-0.122-0.169-0.234-0.305-0.335-0.404
		c-0.102-0.101-0.193-0.173-0.275-0.218c-0.082-0.044-0.219-0.066-0.413-0.066h-0.154v1.797H65.959z M66.728,57.948h-0.177v1.304
		h0.225c0.299,0,0.505-0.026,0.616-0.077c0.111-0.051,0.198-0.129,0.26-0.232s0.093-0.221,0.093-0.354
		c0-0.13-0.035-0.248-0.104-0.353c-0.069-0.105-0.166-0.18-0.291-0.223C67.226,57.97,67.018,57.948,66.728,57.948z"/>
	<path fill="#7C7D7D" d="M69.854,57.446h2.341v0.526h-1.75v1.259h1.692v0.53h-1.692v1.283h1.807v0.527h-2.397V57.446z"/>
	<path fill="#7C7D7D" d="M77.108,62.968v-5.522h0.464v5.522H77.108z"/>
	<path fill="#7C7D7D" d="M82.714,61.57v-4.125h1.392c0.562,0,1.006,0.083,1.333,0.252c0.327,0.168,0.587,0.417,0.781,0.743
		c0.193,0.328,0.29,0.684,0.29,1.07c0,0.276-0.054,0.54-0.16,0.793c-0.106,0.252-0.258,0.474-0.456,0.665
		c-0.201,0.197-0.434,0.346-0.701,0.446c-0.155,0.061-0.298,0.102-0.429,0.123c-0.13,0.021-0.378,0.032-0.745,0.032H82.714z
		 M84.044,57.972h-0.739v3.071h0.757c0.296,0,0.525-0.021,0.689-0.061c0.163-0.041,0.3-0.092,0.409-0.154
		c0.109-0.062,0.209-0.138,0.3-0.229c0.291-0.295,0.437-0.669,0.437-1.12c0-0.443-0.15-0.805-0.449-1.085
		c-0.11-0.104-0.237-0.19-0.38-0.257s-0.279-0.112-0.406-0.134C84.534,57.982,84.328,57.972,84.044,57.972z"/>
	<path fill="#7C7D7D" d="M87.509,57.446h0.592v4.13h-0.592V57.446z"/>
	<path fill="#7C7D7D" d="M90.294,59.846l-0.449-0.273c-0.282-0.172-0.482-0.342-0.602-0.508c-0.12-0.167-0.179-0.358-0.179-0.575
		c0-0.326,0.113-0.589,0.339-0.792c0.226-0.203,0.519-0.305,0.879-0.305c0.345,0,0.661,0.097,0.949,0.291v0.671
		c-0.298-0.286-0.618-0.43-0.961-0.43c-0.193,0-0.352,0.045-0.476,0.134c-0.124,0.089-0.187,0.204-0.187,0.343
		c0,0.124,0.046,0.24,0.137,0.348c0.092,0.107,0.239,0.221,0.441,0.34l0.452,0.267c0.504,0.301,0.755,0.685,0.755,1.149
		c0,0.331-0.11,0.601-0.333,0.807c-0.222,0.207-0.51,0.311-0.865,0.311c-0.408,0-0.779-0.125-1.115-0.376v-0.751
		c0.319,0.404,0.689,0.606,1.109,0.606c0.185,0,0.339-0.051,0.463-0.155c0.123-0.103,0.185-0.232,0.185-0.387
		C90.838,60.309,90.657,60.071,90.294,59.846z"/>
	<path fill="#7C7D7D" d="M95.858,60.618v0.65c-0.433,0.237-0.934,0.355-1.501,0.355c-0.461,0-0.853-0.093-1.174-0.278
		c-0.322-0.185-0.576-0.441-0.763-0.766c-0.187-0.325-0.281-0.677-0.281-1.056c0-0.602,0.214-1.107,0.643-1.517
		c0.429-0.409,0.958-0.615,1.586-0.615c0.434,0,0.915,0.114,1.445,0.34v0.636c-0.482-0.276-0.955-0.414-1.416-0.414
		c-0.473,0-0.866,0.149-1.178,0.448c-0.313,0.299-0.469,0.672-0.469,1.122c0,0.453,0.154,0.826,0.461,1.118
		c0.308,0.292,0.701,0.438,1.18,0.438C94.893,61.079,95.382,60.926,95.858,60.618z"/>
	<path fill="#7C7D7D" d="M98.867,57.386c0.638,0,1.169,0.202,1.594,0.606c0.425,0.404,0.637,0.911,0.637,1.52
		c0,0.609-0.214,1.114-0.643,1.513c-0.428,0.399-0.968,0.599-1.621,0.599c-0.623,0-1.141-0.2-1.556-0.599
		c-0.415-0.399-0.622-0.899-0.622-1.5c0-0.617,0.208-1.127,0.626-1.532C97.701,57.588,98.229,57.386,98.867,57.386z M98.891,57.948
		c-0.473,0-0.861,0.147-1.166,0.443c-0.304,0.295-0.457,0.673-0.457,1.132c0,0.445,0.153,0.816,0.458,1.112
		c0.305,0.295,0.687,0.443,1.146,0.443c0.461,0,0.845-0.151,1.153-0.453s0.462-0.677,0.462-1.126c0-0.438-0.154-0.806-0.462-1.104
		S99.339,57.948,98.891,57.948z"/>
	<path fill="#7C7D7D" d="M104.453,57.446h0.589l-1.746,4.147h-0.134l-1.78-4.147h0.595l1.242,2.9L104.453,57.446z"/>
	<path fill="#7C7D7D" d="M105.748,57.446h2.342v0.526h-1.75v1.259h1.691v0.53h-1.691v1.283h1.806v0.527h-2.397V57.446z"/>
	<path fill="#7C7D7D" d="M109.047,61.576v-4.13h1.035c0.418,0,0.749,0.103,0.995,0.31s0.368,0.487,0.368,0.84
		c0,0.24-0.06,0.449-0.181,0.624c-0.12,0.176-0.292,0.307-0.518,0.394c0.132,0.086,0.262,0.205,0.388,0.355
		c0.126,0.149,0.304,0.411,0.532,0.783c0.144,0.234,0.26,0.411,0.346,0.529l0.219,0.296h-0.703l-0.18-0.272
		c-0.007-0.009-0.018-0.026-0.036-0.05l-0.115-0.163l-0.183-0.302l-0.198-0.323c-0.122-0.169-0.233-0.305-0.334-0.404
		c-0.102-0.101-0.194-0.173-0.276-0.218c-0.081-0.044-0.22-0.066-0.413-0.066h-0.154v1.797H109.047z M109.816,57.948h-0.178v1.304
		h0.225c0.299,0,0.505-0.026,0.617-0.077c0.111-0.051,0.197-0.129,0.26-0.232c0.062-0.104,0.093-0.221,0.093-0.354
		c0-0.13-0.035-0.248-0.104-0.353c-0.068-0.105-0.166-0.18-0.291-0.223C110.313,57.97,110.106,57.948,109.816,57.948z"/>
	<path fill="#7C7D7D" d="M116.915,62.968v-5.522h0.464v5.522H116.915z"/>
	<path fill="#7C7D7D" d="M121.406,57.439h3.45v0.526h-1.439v3.61h-0.595v-3.61h-1.416V57.439z"/>
	<path fill="#7C7D7D" d="M125.687,61.576v-4.13h1.034c0.418,0,0.75,0.103,0.996,0.31c0.245,0.207,0.369,0.487,0.369,0.84
		c0,0.24-0.061,0.449-0.181,0.624c-0.121,0.176-0.292,0.307-0.517,0.394c0.132,0.086,0.26,0.205,0.387,0.355
		c0.126,0.149,0.303,0.411,0.532,0.783c0.144,0.234,0.259,0.411,0.346,0.529l0.219,0.296h-0.703l-0.181-0.272
		c-0.005-0.009-0.018-0.026-0.035-0.05l-0.115-0.163l-0.184-0.302l-0.197-0.323c-0.122-0.169-0.234-0.305-0.335-0.404
		c-0.103-0.101-0.194-0.173-0.276-0.218c-0.082-0.044-0.219-0.066-0.413-0.066h-0.154v1.797H125.687z M126.456,57.948h-0.178v1.304
		h0.225c0.3,0,0.505-0.026,0.616-0.077c0.111-0.051,0.198-0.129,0.261-0.232c0.062-0.104,0.093-0.221,0.093-0.354
		c0-0.13-0.035-0.248-0.104-0.353c-0.068-0.105-0.166-0.18-0.292-0.223C126.952,57.97,126.744,57.948,126.456,57.948z"/>
	<path fill="#7C7D7D" d="M130.898,57.422h0.417l1.851,4.154h-0.605l-0.55-1.224h-1.762l-0.517,1.224h-0.608L130.898,57.422z
		 M131.768,59.825l-0.666-1.496l-0.618,1.496H131.768z"/>
	<path fill="#7C7D7D" d="M137.155,57.446h0.562v4.13h-0.508l-2.762-3.181v3.181h-0.556v-4.13h0.479l2.785,3.208V57.446z"/>
	<path fill="#7C7D7D" d="M139.877,59.846l-0.449-0.273c-0.282-0.172-0.482-0.342-0.602-0.508c-0.119-0.167-0.179-0.358-0.179-0.575
		c0-0.326,0.113-0.589,0.339-0.792s0.519-0.305,0.879-0.305c0.345,0,0.662,0.097,0.948,0.291v0.671
		c-0.297-0.286-0.617-0.43-0.96-0.43c-0.193,0-0.352,0.045-0.476,0.134c-0.124,0.089-0.186,0.204-0.186,0.343
		c0,0.124,0.045,0.24,0.137,0.348c0.091,0.107,0.238,0.221,0.441,0.34l0.452,0.267c0.504,0.301,0.755,0.685,0.755,1.149
		c0,0.331-0.11,0.601-0.333,0.807c-0.221,0.207-0.51,0.311-0.864,0.311c-0.408,0-0.779-0.125-1.115-0.376v-0.751
		c0.32,0.404,0.689,0.606,1.109,0.606c0.186,0,0.339-0.051,0.463-0.155c0.123-0.103,0.184-0.232,0.184-0.387
		C140.421,60.309,140.241,60.071,139.877,59.846z"/>
	<path fill="#7C7D7D" d="M141.888,57.446h2.203v0.526h-1.611v1.153h1.611v0.526h-1.611v1.925h-0.591V57.446z"/>
	<path fill="#7C7D7D" d="M147.004,57.386c0.639,0,1.169,0.202,1.594,0.606c0.425,0.404,0.637,0.911,0.637,1.52
		c0,0.609-0.214,1.114-0.643,1.513c-0.429,0.399-0.969,0.599-1.621,0.599c-0.623,0-1.141-0.2-1.556-0.599
		c-0.415-0.399-0.623-0.899-0.623-1.5c0-0.617,0.209-1.127,0.627-1.532C145.838,57.588,146.366,57.386,147.004,57.386z
		 M147.027,57.948c-0.472,0-0.86,0.147-1.165,0.443c-0.304,0.295-0.456,0.673-0.456,1.132c0,0.445,0.152,0.816,0.458,1.112
		c0.305,0.295,0.687,0.443,1.146,0.443c0.46,0,0.845-0.151,1.153-0.453s0.462-0.677,0.462-1.126c0-0.438-0.154-0.806-0.462-1.104
		S147.476,57.948,147.027,57.948z"/>
	<path fill="#7C7D7D" d="M150.234,61.576v-4.13h1.035c0.418,0,0.75,0.103,0.996,0.31s0.368,0.487,0.368,0.84
		c0,0.24-0.061,0.449-0.181,0.624c-0.121,0.176-0.293,0.307-0.518,0.394c0.132,0.086,0.261,0.205,0.387,0.355
		c0.126,0.149,0.304,0.411,0.532,0.783c0.144,0.234,0.26,0.411,0.346,0.529l0.219,0.296h-0.704l-0.18-0.272
		c-0.006-0.009-0.018-0.026-0.036-0.05l-0.115-0.163l-0.183-0.302l-0.198-0.323c-0.122-0.169-0.234-0.305-0.335-0.404
		c-0.102-0.101-0.193-0.173-0.275-0.218c-0.082-0.044-0.219-0.066-0.413-0.066h-0.153v1.797H150.234z M151.003,57.948h-0.177v1.304
		h0.225c0.3,0,0.505-0.026,0.617-0.077c0.111-0.051,0.198-0.129,0.26-0.232s0.093-0.221,0.093-0.354c0-0.13-0.034-0.248-0.104-0.353
		c-0.069-0.105-0.166-0.18-0.291-0.223C151.5,57.97,151.292,57.948,151.003,57.948z"/>
	<path fill="#7C7D7D" d="M157.412,57.446h0.553v4.13h-0.594v-3.214l-1.27,1.597h-0.109l-1.285-1.597v3.214h-0.591v-4.13h0.56
		l1.372,1.696L157.412,57.446z"/>
</g>
<polygon opacity="0.75" fill="#074E9C" points="120.426,55.194 97.784,55.238 97.833,29.83 "/>
<polygon opacity="0.75" fill="#F180B2" points="92.593,55.883 87.029,53.439 100.733,22.243 "/>
<polygon opacity="0.75" fill="#8E68AC" points="78.138,25.38 98.663,18.69 109.523,16.629 103.346,37.717 "/>
<polygon opacity="0.75" fill="#89D5F3" points="49.478,60.298 5.785,60.298 49.478,46.597 "/>
<polygon opacity="0.75" fill="#AD539F" points="92.387,55.868 50.467,55.868 50.467,18.69 "/>
<polygon opacity="0.75" fill="#4874B8" points="102.277,55.238 103.142,48.015 162.297,55.238 "/>
<polyline opacity="0.75" fill="#A0BF3A" points="123.804,18.206 126.793,20.679 126.793,27.771 124.07,32.155 "/>
<g opacity="0.75">
	<path fill="#A0BF3A" d="M75.847,20.679v-6.816c-3.033,0.121-5.984,0.296-8.833,0.522v6.293H75.847z"/>
	<path fill="#A0BF3A" d="M64.887,20.679v-6.113c-2.289,0.205-4.507,0.444-6.642,0.713v5.4H64.887z"/>
	<path fill="#A0BF3A" d="M89.397,20.679v-6.978c-1.257-0.02-2.524-0.03-3.803-0.03c-2.322,0-4.61,0.033-6.859,0.095v6.913H89.397z"
		/>
	<path fill="#A0BF3A" d="M103.146,20.679v-6.372c-3.424-0.255-6.989-0.438-10.661-0.54v6.912H103.146z"/>
	<path fill="#A0BF3A" d="M57.109,33.581V15.427c-2.322,0.309-4.541,0.655-6.642,1.034v17.12H57.109z"/>
	<path fill="#A0BF3A" d="M116,22.243V3.901c-0.335-0.01-0.67-0.017-1.008-0.017c-3.774,0-7.357,0.626-10.583,1.75v16.608H116z"/>
	<path fill="#A0BF3A" d="M118.424,4.061v38.864c2.253-0.232,4.415-0.687,6.442-1.338V5.398
		C122.839,4.748,120.678,4.292,118.424,4.061z"/>
</g>
<rect x="45.359" y="44.485" opacity="0.75" fill="#9E742B" width="4.118" height="8.494"/>
<rect x="123.173" y="40.823" opacity="0.75" fill="#9E742B" width="3.621" height="11.258"/>
<rect x="125.298" y="46.453" opacity="0.75" fill="#9E742B" width="4.549" height="7.622"/>
<rect x="144.734" y="47.687" opacity="0.75" fill="#DDCF21" width="2.529" height="6.387"/>
<rect x="148.276" y="47.687" opacity="0.75" fill="#DDCF21" width="2.528" height="6.387"/>
<rect x="137.869" y="49.815" opacity="0.75" fill="#DDCF21" width="13.167" height="4.259"/>
<rect x="132.726" y="50.363" opacity="0.75" fill="#9E742B" width="3.995" height="3.438"/>
<polygon opacity="0.75" fill="#9E742B" points="30.082,51.65 30.082,38.896 43.765,38.896 43.765,47.332 "/>
<polygon opacity="0.75" fill="#A0BF3A" points="54.61,28.942 54.34,17.739 112.299,16.34 "/>
<rect x="114.405" y="7.944" opacity="0.75" fill="#A0BF3A" width="6.576" height="7.483"/>
<rect x="118.424" y="32.155" opacity="0.75" fill="#9E742B" width="6.442" height="19.439"/>
<polygon opacity="0.75" fill="#9E742B" points="101.938,40.431 58.245,40.431 101.938,26.73 "/>
<polyline opacity="0.75" fill="#FFFFFF" points="111.875,45.601 118.424,52.957 118.424,45.601 "/>
<polygon opacity="0.75" fill="#89D5F3" points="107.894,22.243 116,22.243 107.894,35.125 "/>
<path opacity="0.75" fill="#7C7D7D" d="M107.894,22.243"/>
<g>
	<path fill="#7C7D7D" d="M140.899,24.231l-3.385-8.782h0.36h0.36l2.775,7.269h-0.001l2.904-7.356h0.205h0.211l2.912,7.356h0
		l2.763-7.269h0.338h0.343l-3.386,8.782h-0.075h-0.075l-3.055-7.637h0.001l-3.046,7.637h-0.075H140.899z"/>
	<path fill="#7C7D7D" d="M152.196,15.45h0.336h0.336v8.695h-0.336h-0.336V15.45z"/>
	<path fill="#7C7D7D" d="M156.055,24.145h-0.336h-0.336V15.45h0.286h0.286l6.591,7.485V15.45h0.336h0.336v8.782h-0.205h-0.212
		l-6.747-7.651V24.145z"/>
	<path fill="#7C7D7D" d="M165.758,15.45h0.336h2.882c1.374,0,2.479,0.398,3.314,1.195c0.836,0.797,1.254,1.849,1.254,3.155
		c0,1.303-0.429,2.354-1.288,3.15s-1.994,1.195-3.405,1.195h-2.757h-0.336V15.45z M166.431,23.541h2.421
		c1.199,0,2.158-0.341,2.876-1.021c0.717-0.681,1.077-1.587,1.077-2.721c0-1.137-0.348-2.045-1.042-2.726
		c-0.695-0.68-1.624-1.021-2.786-1.021h-2.545V23.541z"/>
	<path fill="#7C7D7D" d="M179.842,16.613c-0.407-0.232-0.762-0.401-1.065-0.507c-0.303-0.106-0.583-0.158-0.841-0.158
		c-0.539,0-0.995,0.167-1.366,0.501c-0.372,0.333-0.557,0.741-0.557,1.223c0,0.377,0.141,0.697,0.423,0.958
		c0.278,0.257,0.754,0.506,1.427,0.747c0.872,0.316,1.476,0.659,1.812,1.033c0.336,0.369,0.504,0.879,0.504,1.531
		c0,0.647-0.237,1.194-0.713,1.641c-0.475,0.446-1.057,0.668-1.746,0.668c-0.416,0-0.803-0.06-1.162-0.18
		c-0.359-0.12-0.729-0.313-1.111-0.579v-0.766c0.415,0.312,0.8,0.542,1.155,0.694c0.356,0.151,0.695,0.227,1.019,0.227
		c0.519,0,0.958-0.175,1.314-0.526c0.358-0.35,0.537-0.781,0.537-1.292c0-0.395-0.148-0.734-0.442-1.021
		c-0.292-0.282-0.758-0.54-1.401-0.772c-0.905-0.323-1.519-0.657-1.843-1.002c-0.321-0.34-0.481-0.83-0.481-1.468
		c0-0.623,0.254-1.148,0.763-1.578c0.508-0.43,1.131-0.644,1.869-0.644c0.316,0,0.62,0.041,0.915,0.124
		c0.294,0.084,0.624,0.223,0.989,0.417V16.613z"/>
	<path fill="#7C7D7D" d="M183.242,22.937c-0.904-0.875-1.357-1.92-1.357-3.137c0-1.22,0.453-2.268,1.357-3.143
		c0.904-0.876,1.985-1.313,3.243-1.313c1.261,0,2.344,0.437,3.249,1.313c0.904,0.875,1.356,1.923,1.356,3.143
		c0,1.216-0.452,2.262-1.356,3.137c-0.905,0.876-1.988,1.313-3.249,1.313C185.227,24.25,184.146,23.813,183.242,22.937z
		 M189.219,22.521c0.753-0.751,1.13-1.658,1.13-2.721c0-1.066-0.377-1.975-1.13-2.726c-0.752-0.751-1.664-1.126-2.735-1.126
		c-1.066,0-1.976,0.375-2.729,1.126c-0.752,0.751-1.129,1.66-1.129,2.726c0,1.063,0.376,1.97,1.129,2.721
		c0.753,0.751,1.663,1.126,2.729,1.126C187.555,23.646,188.467,23.271,189.219,22.521z"/>
	<path fill="#7C7D7D" d="M193.275,15.45h0.336h1.811c0.93,0,1.656,0.199,2.181,0.597c0.525,0.398,0.788,0.952,0.788,1.662
		c0,0.706-0.263,1.258-0.791,1.656c-0.24,0.182-0.528,0.323-0.865,0.423c0.129,0.087,0.282,0.227,0.46,0.417
		c0.34,0.365,0.679,0.811,1.015,1.338l1.649,2.602h-0.387h-0.387l-1.649-2.602c-0.406-0.644-0.743-1.063-1.01-1.261
		c-0.268-0.197-0.636-0.295-1.104-0.295h-1.375v4.158h-0.336h-0.336V15.45z M193.947,19.445h1.481c0.706,0,1.251-0.148,1.64-0.444
		c0.388-0.296,0.582-0.713,0.582-1.249c0-0.539-0.194-0.957-0.582-1.253c-0.389-0.296-0.935-0.445-1.64-0.445h-1.481V19.445z"/>
	<path fill="#7C7D7D" d="M138.484,26.636h1.245v7.562h3.915v1.133h-5.16V26.636z"/>
	<path fill="#7C7D7D" d="M144.733,26.636h4.929v1.107h-3.685v2.652h3.561v1.114h-3.561v2.701h3.803v1.108h-5.047V26.636z"/>
	<path fill="#7C7D7D" d="M153.882,26.586h0.875l3.898,8.745h-1.273l-1.159-2.577h-3.709l-1.086,2.577h-1.279L153.882,26.586z
		 M155.711,31.646l-1.402-3.149l-1.301,3.149H155.711z"/>
	<path fill="#7C7D7D" d="M159.621,35.318v-8.682h2.931c1.183,0,2.118,0.177,2.807,0.532s1.236,0.877,1.644,1.565
		c0.406,0.689,0.609,1.44,0.609,2.253c0,0.581-0.112,1.137-0.335,1.668c-0.225,0.531-0.544,0.998-0.959,1.4
		c-0.423,0.415-0.915,0.729-1.475,0.94c-0.328,0.128-0.628,0.214-0.903,0.258c-0.273,0.043-0.797,0.065-1.568,0.065H159.621z
		 M162.421,27.744h-1.556v6.467h1.594c0.622,0,1.105-0.042,1.45-0.127c0.344-0.084,0.631-0.193,0.862-0.323
		c0.23-0.131,0.441-0.292,0.631-0.482c0.614-0.623,0.921-1.41,0.921-2.359c0-0.934-0.314-1.695-0.946-2.284
		c-0.233-0.22-0.499-0.4-0.8-0.542c-0.301-0.142-0.586-0.235-0.855-0.281C163.453,27.767,163.02,27.744,162.421,27.744z"/>
	<path fill="#7C7D7D" d="M169.168,26.636h4.93v1.107h-3.685v2.652h3.561v1.114h-3.561v2.701h3.804v1.108h-5.048V26.636z"/>
	<path fill="#7C7D7D" d="M175.58,35.331v-8.695h2.178c0.879,0,1.578,0.218,2.094,0.653c0.517,0.435,0.775,1.025,0.775,1.768
		c0,0.507-0.126,0.944-0.38,1.313c-0.253,0.369-0.616,0.645-1.089,0.828c0.278,0.182,0.55,0.432,0.815,0.747
		c0.266,0.316,0.64,0.865,1.121,1.649c0.303,0.494,0.546,0.866,0.728,1.114l0.461,0.623h-1.481l-0.379-0.573
		c-0.013-0.021-0.038-0.056-0.075-0.106l-0.243-0.343l-0.385-0.635l-0.417-0.68c-0.256-0.356-0.492-0.64-0.707-0.852
		c-0.214-0.212-0.407-0.363-0.579-0.457c-0.172-0.093-0.462-0.14-0.869-0.14h-0.324v3.784H175.58z M177.198,27.694h-0.374v2.744
		h0.473c0.631,0,1.063-0.053,1.297-0.162c0.235-0.107,0.417-0.271,0.548-0.488s0.196-0.466,0.196-0.744
		c0-0.274-0.073-0.522-0.218-0.744c-0.145-0.223-0.349-0.379-0.613-0.47S177.808,27.694,177.198,27.694z"/>
	<path fill="#7C7D7D" d="M185.395,31.688l-0.946-0.575c-0.593-0.362-1.015-0.719-1.267-1.069c-0.25-0.351-0.376-0.754-0.376-1.211
		c0-0.684,0.238-1.241,0.713-1.668c0.476-0.427,1.092-0.641,1.852-0.641c0.726,0,1.392,0.205,1.998,0.612v1.413
		c-0.626-0.603-1.301-0.904-2.022-0.904c-0.408,0-0.742,0.094-1.002,0.282c-0.261,0.188-0.392,0.429-0.392,0.722
		c0,0.26,0.096,0.504,0.289,0.731c0.193,0.227,0.502,0.466,0.929,0.716l0.951,0.563c1.06,0.634,1.59,1.44,1.59,2.419
		c0,0.698-0.233,1.263-0.7,1.7c-0.466,0.435-1.073,0.653-1.82,0.653c-0.858,0-1.641-0.264-2.346-0.792v-1.581
		c0.672,0.852,1.45,1.278,2.334,1.278c0.39,0,0.714-0.109,0.974-0.326c0.259-0.218,0.389-0.489,0.389-0.816
		C186.54,32.665,186.158,32.163,185.395,31.688z"/>
	<path fill="#7C7D7D" d="M195.209,26.636h1.245v8.695h-1.245v-3.784h-4.886v3.784h-1.245v-8.695h1.245v3.759h4.886V26.636z"/>
	<path fill="#7C7D7D" d="M198.384,26.636h1.245v8.695h-1.245V26.636z"/>
	<path fill="#7C7D7D" d="M201.49,35.331v-8.708h2.757c0.83,0,1.491,0.224,1.985,0.672c0.494,0.448,0.741,1.049,0.741,1.805
		c0,0.507-0.127,0.954-0.38,1.345c-0.253,0.39-0.6,0.673-1.04,0.849s-1.071,0.265-1.892,0.265h-0.921v3.772H201.49z M204.029,27.731
		h-1.289v2.72h1.363c0.506,0,0.896-0.12,1.17-0.358c0.274-0.238,0.41-0.58,0.41-1.024C205.685,28.178,205.134,27.731,204.029,27.731
		z"/>
</g>
</svg>
